<?xml version="1.0" encoding="UTF-8" standalone="no"?>
<!-- Created with Inkscape (http://www.inkscape.org/) -->

<svg
   width="100mm"
   height="100mm"
   viewBox="0 0 100 100"
   version="1.1"
   id="svg5"
   sodipodi:docname="Diskcord.svg"
   inkscape:version="1.1.1 (3bf5ae0d25, 2021-09-20)"
   xmlns:inkscape="http://www.inkscape.org/namespaces/inkscape"
   xmlns:sodipodi="http://sodipodi.sourceforge.net/DTD/sodipodi-0.dtd"
   xmlns="http://www.w3.org/2000/svg"
   xmlns:svg="http://www.w3.org/2000/svg">
  <sodipodi:namedview
     id="namedview7"
     pagecolor="#505050"
     bordercolor="#eeeeee"
     borderopacity="1"
     inkscape:pageshadow="0"
     inkscape:pageopacity="0"
     inkscape:pagecheckerboard="0"
     inkscape:document-units="mm"
     showgrid="false"
     inkscape:zoom="1.4142136"
     inkscape:cx="326.32978"
     inkscape:cy="302.99525"
     inkscape:window-width="1920"
     inkscape:window-height="1017"
     inkscape:window-x="1912"
     inkscape:window-y="-8"
     inkscape:window-maximized="1"
     inkscape:current-layer="layer1"
     width="100mm"
     inkscape:object-paths="true"
     inkscape:snap-object-midpoints="true"
     inkscape:snap-page="true"
     showguides="true"
     inkscape:snap-smooth-nodes="true">
    <inkscape:grid
       type="xygrid"
       id="grid9202" />
  </sodipodi:namedview>
  <defs
     id="defs2">
    <marker
       style="overflow:visible"
       id="Arrow1Lstart"
       refX="0.0"
       refY="0.0"
       orient="auto"
       inkscape:stockid="Arrow1Lstart"
       inkscape:isstock="true">
      <path
         transform="scale(0.8) translate(12.5,0)"
         style="fill-rule:evenodd;fill:context-stroke;stroke:context-stroke;stroke-width:1.0pt"
         d="M 0.0,0.0 L 5.0,-5.0 L -12.5,0.0 L 5.0,5.0 L 0.0,0.0 z "
         id="path7216" />
    </marker>
    <linearGradient
       id="linearGradient6586"
       inkscape:swatch="solid">
      <stop
         style="stop-color:#7289da;stop-opacity:1;"
         offset="0"
         id="stop6584" />
    </linearGradient>
    <rect
       x="-7.6321278"
       y="-286.2048"
       width="282.38873"
       height="236.59596"
       id="rect7087" />
    <rect
       x="264.43973"
       y="655.70258"
       width="67.459114"
       height="125.47396"
       id="rect877" />
  </defs>
  <g
     inkscape:label="Layer 1"
     inkscape:groupmode="layer"
     id="layer1">
    <text
       xml:space="preserve"
       transform="scale(0.26458333)"
       id="text875"
       style="font-style:normal;font-weight:normal;font-size:40px;line-height:1.25;font-family:sans-serif;white-space:pre;shape-inside:url(#rect877);fill:#000000;fill-opacity:1;stroke:none"><tspan
         x="264.43945"
         y="817.66899"
         id="tspan14286"><tspan
           dx="0 27.34375 25.3125 24.023438"
           id="tspan14284">Anal</tspan></tspan></text>
    <text
       xml:space="preserve"
       transform="scale(0.26458333)"
       id="text7085"
       style="font-style:normal;font-weight:normal;font-size:40px;line-height:1.25;font-family:sans-serif;white-space:pre;shape-inside:url(#rect7087);fill:#000000;fill-opacity:1;stroke:none" />
    <path
       id="path9311"
       style="fill:#7289da;fill-opacity:1;fill-rule:evenodd;stroke:#040508;stroke-width:0.856968;stroke-miterlimit:4;stroke-dasharray:none;stroke-opacity:1"
       d="m 49.571479,33.154773 c -18.843257,8.6e-5 -34.11869,7.541885 -34.118866,16.845191 1.78e-4,9.303307 15.275611,16.845104 34.118866,16.845191 18.843255,-8.7e-5 34.118688,-7.541884 34.118866,-16.845191 C 83.690169,40.696658 68.414736,33.154859 49.571479,33.154773 Z m 0.428486,11.663089 c 5.927356,0 10.364326,2.255643 10.364205,5.182102 1.21e-4,2.92646 -4.436849,5.182103 -10.364205,5.182103 -5.927359,0 -10.364327,-2.255643 -10.364206,-5.182103 -1.21e-4,-2.926459 4.436847,-5.182102 10.364206,-5.182102 z"
       sodipodi:nodetypes="cccccscscs" />
    <path
       id="path1009"
       style="color:#000000;fill:#7289da;stroke:#040508;stroke-width:0.863682;stroke-linejoin:round;stroke-miterlimit:4;stroke-dasharray:none;stroke-opacity:1"
       d="m 24.089329,30.135195 c -5.757885,0 -10.809101,1.963024 -14.3554643,5.509387 -3.5463632,3.546363 -5.5093875,8.597575 -5.5093875,14.355465 0,5.757889 1.9630243,10.809105 5.5093875,14.355469 3.5463633,3.546363 8.5975793,5.509387 14.3554643,5.509387 5.57477,0 9.762908,-1.524807 13.331607,-4.120438 -2.602459,-0.489829 -5.0515,-1.132659 -7.303593,-1.905789 -1.668992,0.56236 -3.574379,0.843545 -6.028014,0.843545 -4.606309,0 -8.191748,-1.491581 -10.691173,-3.991001 -2.49942,-2.49942 -3.9910011,-6.08486 -3.9910011,-10.691173 0,-4.606314 1.4915811,-8.191749 3.9910011,-10.691174 2.499425,-2.499415 6.084864,-3.991892 10.691173,-3.991892 4.750261,0 7.451351,1.046756 10.343938,3.167986 2.892587,2.12123 5.900173,5.512769 10.279661,9.892257 l 1.613006,1.613006 c -0.604357,0.609777 -0.968293,0.987926 -1.613006,1.632639 -0.728487,0.728492 -1.406317,1.418963 -2.064681,2.091464 1.532033,0.758308 3.562382,1.267566 5.886082,1.419296 0.610212,-0.603091 0.830036,-0.787686 1.486248,-1.449648 l 1.448761,1.448757 c 2.322361,-0.152132 4.35134,-0.661189 5.882509,-1.419301 -0.658228,-0.672359 -1.33725,-1.362245 -2.065573,-2.090568 l -1.554985,-1.555872 c 4.075593,-4.135172 8.478573,-8.745841 11.045551,-10.772406 3.810981,-3.008664 6.383664,-3.97761 11.133924,-3.97761 4.606313,0 8.195021,1.493478 10.694743,3.984754 2.499726,2.491275 3.987431,6.056222 3.987431,10.617083 0,4.651692 -1.495438,8.258571 -3.99457,10.766154 -2.499137,2.507583 -6.081291,3.997249 -10.687604,3.997249 -2.665044,0 -4.684836,-0.329676 -6.455586,-0.993511 -2.174466,0.771279 -4.540295,1.419365 -7.055442,1.923646 0.03478,0.02574 0.06867,0.05297 0.103545,0.07855 3.585042,2.62903 7.793541,4.173997 13.407483,4.173997 5.75789,0 10.811496,-1.964139 14.358147,-5.522778 3.546652,-3.55864 5.506709,-8.629051 5.506709,-14.423307 0,-5.721592 -1.966899,-10.753553 -5.512956,-14.287627 -3.546062,-3.534074 -8.59401,-5.495996 -14.3519,-5.495996 -5.613942,0 -9.951635,1.62178 -14.345647,5.090736 C 58.363594,37.75345 54.55531,41.6283 49.966126,46.302725 L 48.377224,44.712928 C 44.119883,40.455587 41.081849,36.937322 37.496812,34.308296 33.911775,31.679266 29.703272,30.135195 24.089329,30.135195 Z" />
    <path
       id="path9887"
       style="fill:none;stroke:#040508;stroke-width:0.863682;stroke-linecap:butt;stroke-linejoin:miter;stroke-miterlimit:4;stroke-dasharray:none;stroke-opacity:1"
       d="m 49.966126,46.302725 -3.640192,3.687505 z m 3.765163,3.764272 -3.710712,3.616984 z" />
  </g>
</svg>
